{
	"asset":{
		"generator":"Khronos glTF Blender I/O v4.5.47",
		"version":"2.0"
	},
	"extensionsUsed":[
		"KHR_lights_punctual"
	],
	"extensionsRequired":[
		"KHR_lights_punctual"
	],
	"extensions":{
		"KHR_lights_punctual":{
			"lights":[
				{
					"color":[
						1,
						1,
						1
					],
					"intensity":54351.41306588226,
					"type":"point",
					"name":"Light"
				}
			]
		}
	},
	"scene":0,
	"scenes":[
		{
			"name":"Scene",
			"nodes":[
				0,
				1,
				5,
				4
			]
		}
	],
	"nodes":[
		{
			"extensions":{
				"KHR_lights_punctual":{
					"light":0
				}
			},
			"name":"Light",
			"rotation":[
				-0.28416627645492554,
				0.7269423007965088,
				0.34203392267227173,
				0.5232754945755005
			],
			"translation":[
				4.076245307922363,
				5.903861999511719,
				3.907970905303955
			]
		},
		{
			"camera":0,
			"name":"Camera",
			"rotation":[
				0.013418121263384819,
				0.16582372784614563,
				-0.002256448846310377,
				0.9860615730285645
			],
			"translation":[
				6.666284084320068,
				1.4988337755203247,
				14.159565925598145
			]
		},
		{
			"name":"Bone.002",
			"rotation":[
				-1.1102230246251565e-15,
				2.1094237467877974e-15,
				0,
				1
			],
			"translation":[
				-2.8870990931295637e-08,
				1.0686020851135254,
				-7.105427357601002e-15
			]
		},
		{
			"children":[
				2
			],
			"name":"Bone.001",
			"rotation":[
				-2.8204030222411802e-09,
				-4.4620680483831165e-08,
				-0.006413428112864494,
				0.9999794363975525
			],
			"translation":[
				1.1657341758564144e-15,
				1,
				-1.7763568394002505e-15
			]
		},
		{
			"children":[
				3
			],
			"name":"Bone",
			"rotation":[
				1.7542046037988257e-08,
				-1.7619212755448643e-08,
				-0.18498070538043976,
				0.982742190361023
			]
		},
		{
			"mesh":0,
			"name":"Cylinder",
			"skin":0
		}
	],
	"cameras":[
		{
			"name":"Camera",
			"perspective":{
				"aspectRatio":1.7777777777777777,
				"yfov":0.39959652046304894,
				"zfar":100,
				"znear":0.10000000149011612
			},
			"type":"perspective"
		}
	],
	"animations":[
		{
			"channels":[
				{
					"sampler":0,
					"target":{
						"node":4,
						"path":"translation"
					}
				},
				{
					"sampler":1,
					"target":{
						"node":4,
						"path":"rotation"
					}
				},
				{
					"sampler":2,
					"target":{
						"node":4,
						"path":"scale"
					}
				},
				{
					"sampler":3,
					"target":{
						"node":3,
						"path":"translation"
					}
				},
				{
					"sampler":4,
					"target":{
						"node":3,
						"path":"rotation"
					}
				},
				{
					"sampler":5,
					"target":{
						"node":3,
						"path":"scale"
					}
				},
				{
					"sampler":6,
					"target":{
						"node":2,
						"path":"translation"
					}
				},
				{
					"sampler":7,
					"target":{
						"node":2,
						"path":"rotation"
					}
				},
				{
					"sampler":8,
					"target":{
						"node":2,
						"path":"scale"
					}
				}
			],
			"name":"ArmatureAction",
			"samplers":[
				{
					"input":7,
					"interpolation":"STEP",
					"output":8
				},
				{
					"input":7,
					"interpolation":"STEP",
					"output":9
				},
				{
					"input":7,
					"interpolation":"STEP",
					"output":10
				},
				{
					"input":7,
					"interpolation":"STEP",
					"output":11
				},
				{
					"input":7,
					"interpolation":"STEP",
					"output":12
				},
				{
					"input":7,
					"interpolation":"STEP",
					"output":10
				},
				{
					"input":7,
					"interpolation":"STEP",
					"output":13
				},
				{
					"input":14,
					"interpolation":"LINEAR",
					"output":15
				},
				{
					"input":7,
					"interpolation":"STEP",
					"output":10
				}
			]
		}
	],
	"meshes":[
		{
			"name":"Cylinder",
			"primitives":[
				{
					"attributes":{
						"POSITION":0,
						"NORMAL":1,
						"TEXCOORD_0":2,
						"JOINTS_0":3,
						"WEIGHTS_0":4
					},
					"indices":5
				}
			]
		}
	],
	"skins":[
		{
			"inverseBindMatrices":6,
			"joints":[
				4,
				3,
				2
			],
			"name":"Armature"
		}
	],
	"accessors":[
		{
			"bufferView":0,
			"componentType":5126,
			"count":1536,
			"max":[
				1,
				3.4625134468078613,
				1
			],
			"min":[
				-1,
				0.009970903396606445,
				-1
			],
			"type":"VEC3"
		},
		{
			"bufferView":1,
			"componentType":5126,
			"count":1536,
			"type":"VEC3"
		},
		{
			"bufferView":2,
			"componentType":5126,
			"count":1536,
			"type":"VEC2"
		},
		{
			"bufferView":3,
			"componentType":5121,
			"count":1536,
			"type":"VEC4"
		},
		{
			"bufferView":4,
			"componentType":5126,
			"count":1536,
			"type":"VEC4"
		},
		{
			"bufferView":5,
			"componentType":5123,
			"count":4404,
			"type":"SCALAR"
		},
		{
			"bufferView":6,
			"componentType":5126,
			"count":3,
			"type":"MAT4"
		},
		{
			"bufferView":7,
			"componentType":5126,
			"count":2,
			"max":[
				1.2083333333333333
			],
			"min":[
				0.041666666666666664
			],
			"type":"SCALAR"
		},
		{
			"bufferView":8,
			"componentType":5126,
			"count":2,
			"type":"VEC3"
		},
		{
			"bufferView":9,
			"componentType":5126,
			"count":2,
			"type":"VEC4"
		},
		{
			"bufferView":10,
			"componentType":5126,
			"count":2,
			"type":"VEC3"
		},
		{
			"bufferView":11,
			"componentType":5126,
			"count":2,
			"type":"VEC3"
		},
		{
			"bufferView":12,
			"componentType":5126,
			"count":2,
			"type":"VEC4"
		},
		{
			"bufferView":13,
			"componentType":5126,
			"count":2,
			"type":"VEC3"
		},
		{
			"bufferView":14,
			"componentType":5126,
			"count":29,
			"max":[
				1.2083333333333333
			],
			"min":[
				0.041666666666666664
			],
			"type":"SCALAR"
		},
		{
			"bufferView":15,
			"componentType":5126,
			"count":29,
			"type":"VEC4"
		}
	],
	"bufferViews":[
		{
			"buffer":0,
			"byteLength":18432,
			"byteOffset":0,
			"target":34962
		},
		{
			"buffer":0,
			"byteLength":18432,
			"byteOffset":18432,
			"target":34962
		},
		{
			"buffer":0,
			"byteLength":12288,
			"byteOffset":36864,
			"target":34962
		},
		{
			"buffer":0,
			"byteLength":6144,
			"byteOffset":49152,
			"target":34962
		},
		{
			"buffer":0,
			"byteLength":24576,
			"byteOffset":55296,
			"target":34962
		},
		{
			"buffer":0,
			"byteLength":8808,
			"byteOffset":79872,
			"target":34963
		},
		{
			"buffer":0,
			"byteLength":192,
			"byteOffset":88680
		},
		{
			"buffer":0,
			"byteLength":8,
			"byteOffset":88872
		},
		{
			"buffer":0,
			"byteLength":24,
			"byteOffset":88880
		},
		{
			"buffer":0,
			"byteLength":32,
			"byteOffset":88904
		},
		{
			"buffer":0,
			"byteLength":24,
			"byteOffset":88936
		},
		{
			"buffer":0,
			"byteLength":24,
			"byteOffset":88960
		},
		{
			"buffer":0,
			"byteLength":32,
			"byteOffset":88984
		},
		{
			"buffer":0,
			"byteLength":24,
			"byteOffset":89016
		},
		{
			"buffer":0,
			"byteLength":116,
			"byteOffset":89040
		},
		{
			"buffer":0,
			"byteLength":464,
			"byteOffset":89156
		}
	],
	"buffers":[
		{
			"byteLength":89620,
			"uri":"anim.bin"
		}
	]
}
